<svg width="141" height="67" viewBox="0 0 141 67" fill="none" xmlns="http://www.w3.org/2000/svg">
<g clip-path="url(#clip0)">
<rect x="1" y="1" width="52" height="52" fill="#FFA800"/>
<g filter="url(#filter0_d)">
<rect x="14" y="14" width="52" height="52" fill="#FFC700"/>
</g>
<path d="M81.5848 34.158L78.7688 37.018V41H76.5688V25.6H78.7688V34.202L87.1288 25.6H89.6368L83.0588 32.53L90.0548 41H87.4808L81.5848 34.158ZM96.04 29.23C97.6533 29.23 98.8853 29.626 99.736 30.418C100.601 31.21 101.034 32.3907 101.034 33.96V41H99.032V39.46C98.68 40.0027 98.174 40.4207 97.514 40.714C96.8687 40.9927 96.0987 41.132 95.204 41.132C93.8987 41.132 92.85 40.8167 92.058 40.186C91.2807 39.5553 90.892 38.7267 90.892 37.7C90.892 36.6733 91.266 35.852 92.014 35.236C92.762 34.6053 93.95 34.29 95.578 34.29H98.922V33.872C98.922 32.9627 98.658 32.266 98.13 31.782C97.602 31.298 96.8247 31.056 95.798 31.056C95.1087 31.056 94.434 31.1733 93.774 31.408C93.114 31.628 92.5567 31.9287 92.102 32.31L91.222 30.726C91.8233 30.242 92.542 29.8753 93.378 29.626C94.214 29.362 95.1013 29.23 96.04 29.23ZM95.556 39.504C96.3627 39.504 97.0593 39.328 97.646 38.976C98.2327 38.6093 98.658 38.096 98.922 37.436V35.808H95.666C93.8767 35.808 92.982 36.4093 92.982 37.612C92.982 38.1987 93.2093 38.6607 93.664 38.998C94.1187 39.3353 94.7493 39.504 95.556 39.504ZM115.81 29.34V41H113.808V39.24C113.383 39.8413 112.818 40.3107 112.114 40.648C111.425 40.9707 110.67 41.132 109.848 41.132C108.294 41.132 107.069 40.7067 106.174 39.856C105.28 38.9907 104.832 37.722 104.832 36.05V29.34H106.944V35.808C106.944 36.9373 107.216 37.7953 107.758 38.382C108.301 38.954 109.078 39.24 110.09 39.24C111.205 39.24 112.085 38.9027 112.73 38.228C113.376 37.5533 113.698 36.6 113.698 35.368V29.34H115.81ZM121.855 31.298C122.222 30.6233 122.764 30.11 123.483 29.758C124.202 29.406 125.074 29.23 126.101 29.23V31.276C125.984 31.2613 125.822 31.254 125.617 31.254C124.473 31.254 123.571 31.5987 122.911 32.288C122.266 32.9627 121.943 33.9307 121.943 35.192V41H119.831V29.34H121.855V31.298ZM139.723 29.34V41H137.721V39.24C137.295 39.8413 136.731 40.3107 136.027 40.648C135.337 40.9707 134.582 41.132 133.761 41.132C132.206 41.132 130.981 40.7067 130.087 39.856C129.192 38.9907 128.745 37.722 128.745 36.05V29.34H130.857V35.808C130.857 36.9373 131.128 37.7953 131.671 38.382C132.213 38.954 132.991 39.24 134.003 39.24C135.117 39.24 135.997 38.9027 136.643 38.228C137.288 37.5533 137.611 36.6 137.611 35.368V29.34H139.723Z" fill="#727272"/>
</g>
<defs>
<filter id="filter0_d" x="7" y="7" width="62" height="62" filterUnits="userSpaceOnUse" color-interpolation-filters="sRGB">
<feFlood flood-opacity="0" result="BackgroundImageFix"/>
<feColorMatrix in="SourceAlpha" type="matrix" values="0 0 0 0 0 0 0 0 0 0 0 0 0 0 0 0 0 0 127 0" result="hardAlpha"/>
<feOffset dx="-2" dy="-2"/>
<feGaussianBlur stdDeviation="2.5"/>
<feComposite in2="hardAlpha" operator="out"/>
<feColorMatrix type="matrix" values="0 0 0 0 0 0 0 0 0 0 0 0 0 0 0 0 0 0 0.29 0"/>
<feBlend mode="normal" in2="BackgroundImageFix" result="effect1_dropShadow"/>
<feBlend mode="normal" in="SourceGraphic" in2="effect1_dropShadow" result="shape"/>
</filter>
<clipPath id="clip0">
<rect width="141" height="67" fill="white"/>
</clipPath>
</defs>
</svg>
