<svg width="169" height="67" viewBox="0 0 169 67" fill="none" xmlns="http://www.w3.org/2000/svg">
<g clip-path="url(#clip0)">
<rect x="1" y="1" width="52" height="52" fill="#FFA800"/>
<g filter="url(#filter0_d)">
<rect x="14" y="14" width="52" height="52" fill="#FFC700"/>
</g>
<path d="M92.324 34.292L88.74 37.932V43H85.94V23.4H88.74V34.348L99.38 23.4H102.572L94.2 32.22L103.104 43H99.828L92.324 34.292ZM110.722 28.02C112.775 28.02 114.343 28.524 115.426 29.532C116.527 30.54 117.078 32.0427 117.078 34.04V43H114.53V41.04C114.082 41.7307 113.438 42.2627 112.598 42.636C111.776 42.9907 110.796 43.168 109.658 43.168C107.996 43.168 106.662 42.7667 105.654 41.964C104.664 41.1613 104.17 40.1067 104.17 38.8C104.17 37.4933 104.646 36.448 105.598 35.664C106.55 34.8613 108.062 34.46 110.134 34.46H114.39V33.928C114.39 32.7707 114.054 31.884 113.382 31.268C112.71 30.652 111.72 30.344 110.414 30.344C109.536 30.344 108.678 30.4933 107.838 30.792C106.998 31.072 106.288 31.4547 105.71 31.94L104.59 29.924C105.355 29.308 106.27 28.8413 107.334 28.524C108.398 28.188 109.527 28.02 110.722 28.02ZM110.106 41.096C111.132 41.096 112.019 40.872 112.766 40.424C113.512 39.9573 114.054 39.304 114.39 38.464V36.392H110.246C107.968 36.392 106.83 37.1573 106.83 38.688C106.83 39.4347 107.119 40.0227 107.698 40.452C108.276 40.8813 109.079 41.096 110.106 41.096ZM135.884 28.16V43H133.336V40.76C132.795 41.5253 132.076 42.1227 131.18 42.552C130.303 42.9627 129.341 43.168 128.296 43.168C126.317 43.168 124.759 42.6267 123.62 41.544C122.481 40.4427 121.912 38.828 121.912 36.7V28.16H124.6V36.392C124.6 37.8293 124.945 38.9213 125.636 39.668C126.327 40.396 127.316 40.76 128.604 40.76C130.023 40.76 131.143 40.3307 131.964 39.472C132.785 38.6133 133.196 37.4 133.196 35.832V28.16H135.884ZM143.577 30.652C144.044 29.7933 144.734 29.14 145.649 28.692C146.564 28.244 147.674 28.02 148.981 28.02V30.624C148.832 30.6053 148.626 30.596 148.365 30.596C146.909 30.596 145.761 31.0347 144.921 31.912C144.1 32.7707 143.689 34.0027 143.689 35.608V43H141.001V28.16H143.577V30.652ZM166.318 28.16V43H163.77V40.76C163.228 41.5253 162.51 42.1227 161.614 42.552C160.736 42.9627 159.775 43.168 158.73 43.168C156.751 43.168 155.192 42.6267 154.053 41.544C152.915 40.4427 152.346 38.828 152.346 36.7V28.16H155.034V36.392C155.034 37.8293 155.379 38.9213 156.07 39.668C156.76 40.396 157.75 40.76 159.038 40.76C160.456 40.76 161.576 40.3307 162.398 39.472C163.219 38.6133 163.63 37.4 163.63 35.832V28.16H166.318Z" fill="white"/>
</g>
<defs>
<filter id="filter0_d" x="7" y="7" width="62" height="62" filterUnits="userSpaceOnUse" color-interpolation-filters="sRGB">
<feFlood flood-opacity="0" result="BackgroundImageFix"/>
<feColorMatrix in="SourceAlpha" type="matrix" values="0 0 0 0 0 0 0 0 0 0 0 0 0 0 0 0 0 0 127 0" result="hardAlpha"/>
<feOffset dx="-2" dy="-2"/>
<feGaussianBlur stdDeviation="2.5"/>
<feComposite in2="hardAlpha" operator="out"/>
<feColorMatrix type="matrix" values="0 0 0 0 0 0 0 0 0 0 0 0 0 0 0 0 0 0 0.29 0"/>
<feBlend mode="normal" in2="BackgroundImageFix" result="effect1_dropShadow"/>
<feBlend mode="normal" in="SourceGraphic" in2="effect1_dropShadow" result="shape"/>
</filter>
<clipPath id="clip0">
<rect width="169" height="67" fill="white"/>
</clipPath>
</defs>
</svg>
