<svg width="163" height="67" viewBox="0 0 163 67" fill="none" xmlns="http://www.w3.org/2000/svg">
<g clip-path="url(#clip0)">
<rect x="1" y="1" width="52" height="52" fill="#CA0000"/>
<g filter="url(#filter0_d)">
<rect x="14" y="14" width="52" height="52" fill="#00BF08"/>
</g>
<line x1="14" y1="13.95" x2="66" y2="13.95" stroke="black" stroke-width="0.1"/>
<line x1="14" y1="65.95" x2="66" y2="65.95" stroke="black" stroke-width="0.1"/>
<line x1="1" y1="0.95" x2="53" y2="0.95" stroke="black" stroke-width="0.1"/>
<line x1="0.95" y1="53" x2="0.95" y2="1" stroke="black" stroke-width="0.1"/>
<line x1="65.95" y1="66" x2="65.95" y2="14" stroke="black" stroke-width="0.1"/>
<line x1="13.95" y1="66" x2="13.95" y2="14" stroke="black" stroke-width="0.1"/>
<line x1="53.05" y1="1" x2="53.05" y2="14" stroke="black" stroke-width="0.1"/>
<line x1="1" y1="52.95" x2="14" y2="52.95" stroke="black" stroke-width="0.1"/>
<path d="M83.5929 41.176C82.4343 41.176 81.3123 41 80.2269 40.648C79.1563 40.2813 78.3129 39.812 77.6969 39.24L78.5109 37.524C79.0976 38.052 79.8456 38.4847 80.7549 38.822C81.6789 39.1447 82.6249 39.306 83.5929 39.306C84.8689 39.306 85.8223 39.0933 86.4529 38.668C87.0836 38.228 87.3989 37.6487 87.3989 36.93C87.3989 36.402 87.2229 35.9767 86.8709 35.654C86.5336 35.3167 86.1083 35.06 85.5949 34.884C85.0963 34.708 84.3849 34.51 83.4609 34.29C82.3023 34.0113 81.3636 33.7327 80.6449 33.454C79.9409 33.1753 79.3323 32.75 78.8189 32.178C78.3203 31.5913 78.0709 30.8067 78.0709 29.824C78.0709 29.0027 78.2836 28.262 78.7089 27.602C79.1489 26.942 79.8089 26.414 80.6889 26.018C81.5689 25.622 82.6616 25.424 83.9669 25.424C84.8763 25.424 85.7709 25.5413 86.6509 25.776C87.5309 26.0107 88.2863 26.348 88.9169 26.788L88.1909 28.548C87.5456 28.1373 86.8563 27.8293 86.1229 27.624C85.3896 27.404 84.6709 27.294 83.9669 27.294C82.7203 27.294 81.7816 27.5213 81.1509 27.976C80.5349 28.4307 80.2269 29.0173 80.2269 29.736C80.2269 30.264 80.4029 30.6967 80.7549 31.034C81.1069 31.3567 81.5396 31.6133 82.0529 31.804C82.5809 31.98 83.2923 32.1707 84.1869 32.376C85.3456 32.6547 86.2769 32.9333 86.9809 33.212C87.6849 33.4907 88.2863 33.916 88.7849 34.488C89.2983 35.06 89.5549 35.83 89.5549 36.798C89.5549 37.6047 89.3349 38.3453 88.8949 39.02C88.4549 39.68 87.7876 40.208 86.8929 40.604C85.9983 40.9853 84.8983 41.176 83.5929 41.176ZM99.017 40.318C98.709 40.582 98.3277 40.7873 97.873 40.934C97.4183 41.066 96.949 41.132 96.465 41.132C95.2917 41.132 94.3823 40.8167 93.737 40.186C93.0917 39.5553 92.769 38.6533 92.769 37.48V31.078H90.789V29.34H92.769V26.788H94.881V29.34H98.225V31.078H94.881V37.392C94.881 38.0227 95.035 38.5067 95.343 38.844C95.6657 39.1813 96.1203 39.35 96.707 39.35C97.3523 39.35 97.9023 39.1667 98.357 38.8L99.017 40.318ZM105.816 29.23C107.43 29.23 108.662 29.626 109.512 30.418C110.378 31.21 110.81 32.3907 110.81 33.96V41H108.808V39.46C108.456 40.0027 107.95 40.4207 107.29 40.714C106.645 40.9927 105.875 41.132 104.98 41.132C103.675 41.132 102.626 40.8167 101.834 40.186C101.057 39.5553 100.668 38.7267 100.668 37.7C100.668 36.6733 101.042 35.852 101.79 35.236C102.538 34.6053 103.726 34.29 105.354 34.29H108.698V33.872C108.698 32.9627 108.434 32.266 107.906 31.782C107.378 31.298 106.601 31.056 105.574 31.056C104.885 31.056 104.21 31.1733 103.55 31.408C102.89 31.628 102.333 31.9287 101.878 32.31L100.998 30.726C101.6 30.242 102.318 29.8753 103.154 29.626C103.99 29.362 104.878 29.23 105.816 29.23ZM105.332 39.504C106.139 39.504 106.836 39.328 107.422 38.976C108.009 38.6093 108.434 38.096 108.698 37.436V35.808H105.442C103.653 35.808 102.758 36.4093 102.758 37.612C102.758 38.1987 102.986 38.6607 103.44 38.998C103.895 39.3353 104.526 39.504 105.332 39.504ZM129.305 29.23C130.771 29.23 131.93 29.6553 132.781 30.506C133.646 31.3567 134.079 32.618 134.079 34.29V41H131.967V34.532C131.967 33.4027 131.703 32.552 131.175 31.98C130.661 31.408 129.921 31.122 128.953 31.122C127.882 31.122 127.031 31.4593 126.401 32.134C125.77 32.794 125.455 33.7473 125.455 34.994V41H123.343V34.532C123.343 33.4027 123.079 32.552 122.551 31.98C122.037 31.408 121.297 31.122 120.329 31.122C119.258 31.122 118.407 31.4593 117.777 32.134C117.146 32.794 116.831 33.7473 116.831 34.994V41H114.719V29.34H116.743V31.078C117.168 30.4767 117.725 30.022 118.415 29.714C119.104 29.3913 119.889 29.23 120.769 29.23C121.678 29.23 122.485 29.4133 123.189 29.78C123.893 30.1467 124.435 30.682 124.817 31.386C125.257 30.7113 125.865 30.1833 126.643 29.802C127.435 29.4207 128.322 29.23 129.305 29.23ZM144.147 29.23C145.276 29.23 146.288 29.4793 147.183 29.978C148.078 30.4767 148.774 31.1733 149.273 32.068C149.786 32.9627 150.043 33.9967 150.043 35.17C150.043 36.3433 149.786 37.3847 149.273 38.294C148.774 39.1887 148.078 39.8853 147.183 40.384C146.288 40.8827 145.276 41.132 144.147 41.132C143.311 41.132 142.541 40.9707 141.837 40.648C141.148 40.3253 140.561 39.856 140.077 39.24V45.268H137.965V29.34H139.989V31.188C140.458 30.5427 141.052 30.0587 141.771 29.736C142.49 29.3987 143.282 29.23 144.147 29.23ZM143.971 39.284C144.719 39.284 145.386 39.1153 145.973 38.778C146.574 38.426 147.044 37.942 147.381 37.326C147.733 36.6953 147.909 35.9767 147.909 35.17C147.909 34.3633 147.733 33.652 147.381 33.036C147.044 32.4053 146.574 31.9213 145.973 31.584C145.386 31.2467 144.719 31.078 143.971 31.078C143.238 31.078 142.57 31.254 141.969 31.606C141.382 31.9433 140.913 32.42 140.561 33.036C140.224 33.652 140.055 34.3633 140.055 35.17C140.055 35.9767 140.224 36.6953 140.561 37.326C140.898 37.942 141.368 38.426 141.969 38.778C142.57 39.1153 143.238 39.284 143.971 39.284ZM157.1 29.23C158.713 29.23 159.945 29.626 160.796 30.418C161.661 31.21 162.094 32.3907 162.094 33.96V41H160.092V39.46C159.74 40.0027 159.234 40.4207 158.574 40.714C157.928 40.9927 157.158 41.132 156.264 41.132C154.958 41.132 153.91 40.8167 153.118 40.186C152.34 39.5553 151.952 38.7267 151.952 37.7C151.952 36.6733 152.326 35.852 153.074 35.236C153.822 34.6053 155.01 34.29 156.638 34.29H159.982V33.872C159.982 32.9627 159.718 32.266 159.19 31.782C158.662 31.298 157.884 31.056 156.858 31.056C156.168 31.056 155.494 31.1733 154.834 31.408C154.174 31.628 153.616 31.9287 153.162 32.31L152.282 30.726C152.883 30.242 153.602 29.8753 154.438 29.626C155.274 29.362 156.161 29.23 157.1 29.23ZM156.616 39.504C157.422 39.504 158.119 39.328 158.706 38.976C159.292 38.6093 159.718 38.096 159.982 37.436V35.808H156.726C154.936 35.808 154.042 36.4093 154.042 37.612C154.042 38.1987 154.269 38.6607 154.724 38.998C155.178 39.3353 155.809 39.504 156.616 39.504Z" fill="#727272"/>
</g>
<defs>
<filter id="filter0_d" x="7" y="7" width="62" height="62" filterUnits="userSpaceOnUse" color-interpolation-filters="sRGB">
<feFlood flood-opacity="0" result="BackgroundImageFix"/>
<feColorMatrix in="SourceAlpha" type="matrix" values="0 0 0 0 0 0 0 0 0 0 0 0 0 0 0 0 0 0 127 0" result="hardAlpha"/>
<feOffset dx="-2" dy="-2"/>
<feGaussianBlur stdDeviation="2.5"/>
<feComposite in2="hardAlpha" operator="out"/>
<feColorMatrix type="matrix" values="0 0 0 0 0 0 0 0 0 0 0 0 0 0 0 0 0 0 0.29 0"/>
<feBlend mode="normal" in2="BackgroundImageFix" result="effect1_dropShadow"/>
<feBlend mode="normal" in="SourceGraphic" in2="effect1_dropShadow" result="shape"/>
</filter>
<clipPath id="clip0">
<rect width="163" height="67" fill="white"/>
</clipPath>
</defs>
</svg>
